<mxfile host="app.diagrams.net" modified="2021-05-05T06:28:01.328Z" agent="5.0 (Windows)" etag="4NBcouV7l1KxRsX8nH1B" version="14.6.9" type="github">
  <diagram name="Page-1" id="5f0bae14-7c28-e335-631c-24af17079c00">
    <mxGraphModel dx="4540" dy="1823" grid="1" gridSize="10" guides="1" tooltips="1" connect="1" arrows="1" fold="1" page="1" pageScale="1" pageWidth="1100" pageHeight="850" background="#ffffff" math="0" shadow="0">
      <root>
        <mxCell id="0" />
        <mxCell id="1" parent="0" />
        <mxCell id="D0nsK-4iOJoPO3HQ679--17" value="&lt;div style=&quot;font-size: 22px&quot;&gt;&lt;font style=&quot;font-size: 22px&quot;&gt;&amp;lt;&amp;lt;device&amp;gt;&amp;gt;&lt;/font&gt;&lt;/div&gt;&lt;div style=&quot;font-size: 22px&quot;&gt;&lt;font style=&quot;font-size: 22px&quot;&gt;Rest API server machine&lt;br&gt;&lt;/font&gt;&lt;/div&gt;" style="verticalAlign=top;align=center;spacingTop=8;spacingLeft=2;spacingRight=12;shape=cube;size=10;direction=south;fontStyle=4;html=1;" vertex="1" parent="1">
          <mxGeometry x="-200" y="60" width="650" height="860" as="geometry" />
        </mxCell>
        <mxCell id="39150e848f15840c-1" value="&lt;div&gt;&lt;font style=&quot;font-size: 19px&quot;&gt;&amp;lt;&amp;lt;server api&amp;gt;&amp;gt;&lt;/font&gt;&lt;br&gt;&lt;/div&gt;&lt;div style=&quot;font-size: 21px&quot; align=&quot;center&quot;&gt;&lt;font style=&quot;font-size: 21px&quot;&gt;Backend Services&lt;/font&gt;&lt;/div&gt;" style="verticalAlign=top;align=center;spacingTop=8;spacingLeft=2;spacingRight=12;shape=cube;size=10;direction=south;fontStyle=4;html=1;rounded=0;shadow=0;comic=0;labelBackgroundColor=none;strokeWidth=1;fontFamily=Verdana;fontSize=12" parent="1" vertex="1">
          <mxGeometry x="-110" y="130" width="470" height="750" as="geometry" />
        </mxCell>
        <mxCell id="39150e848f15840c-2" value="&lt;div align=&quot;center&quot;&gt;&lt;font style=&quot;font-size: 22px&quot;&gt;&amp;lt;&amp;lt;cloud&amp;gt;&amp;gt;&lt;/font&gt;&lt;/div&gt;&lt;div align=&quot;center&quot;&gt;&lt;font style=&quot;font-size: 22px&quot;&gt;Amazon Web Services&lt;br&gt;&lt;/font&gt;&lt;/div&gt;" style="verticalAlign=top;align=center;spacingTop=8;spacingLeft=2;spacingRight=12;shape=cube;size=10;direction=south;fontStyle=4;html=1;rounded=0;shadow=0;comic=0;labelBackgroundColor=none;strokeWidth=1;fontFamily=Verdana;fontSize=12" parent="1" vertex="1">
          <mxGeometry x="600" y="210" width="490" height="490" as="geometry" />
        </mxCell>
        <mxCell id="bZb01kiOmycca8Bfqlvu-1" value="&lt;div style=&quot;font-size: 23px&quot; align=&quot;center&quot;&gt;&lt;font style=&quot;font-size: 23px&quot;&gt;&amp;lt;&amp;lt;device&amp;gt;&amp;gt;&lt;/font&gt;&lt;/div&gt;&lt;div style=&quot;font-size: 23px&quot; align=&quot;center&quot;&gt;&lt;font style=&quot;font-size: 23px&quot;&gt;&lt;br&gt;&lt;/font&gt;&lt;/div&gt;" style="verticalAlign=top;align=center;spacingTop=8;spacingLeft=2;spacingRight=12;shape=cube;size=10;direction=south;fontStyle=4;html=1;rounded=0;shadow=0;comic=0;labelBackgroundColor=none;strokeWidth=1;fontFamily=Verdana;fontSize=12" parent="1" vertex="1">
          <mxGeometry x="-880" y="40" width="440" height="420" as="geometry" />
        </mxCell>
        <mxCell id="bZb01kiOmycca8Bfqlvu-2" value="&lt;div style=&quot;font-size: 22px&quot; align=&quot;center&quot;&gt;&lt;font style=&quot;font-size: 22px&quot;&gt;&amp;lt;&amp;lt;OS&amp;gt;&amp;gt;&lt;/font&gt;&lt;/div&gt;&lt;div style=&quot;font-size: 22px&quot; align=&quot;center&quot;&gt;&lt;font style=&quot;font-size: 22px&quot;&gt;&lt;br&gt;&lt;/font&gt;&lt;/div&gt;" style="verticalAlign=top;align=center;spacingTop=8;spacingLeft=2;spacingRight=12;shape=cube;size=10;direction=south;fontStyle=4;html=1;rounded=0;shadow=0;comic=0;labelBackgroundColor=none;strokeWidth=1;fontFamily=Verdana;fontSize=12" parent="1" vertex="1">
          <mxGeometry x="-850" y="120" width="360" height="310" as="geometry" />
        </mxCell>
        <mxCell id="bZb01kiOmycca8Bfqlvu-3" value="&lt;div style=&quot;font-size: 24px&quot;&gt;&lt;font style=&quot;font-size: 24px&quot;&gt;Android OS&lt;/font&gt;&lt;/div&gt;&lt;div style=&quot;font-size: 24px&quot;&gt;&lt;font style=&quot;font-size: 24px&quot;&gt;&lt;br&gt;&lt;/font&gt;&lt;/div&gt;" style="text;html=1;strokeColor=none;fillColor=none;align=center;verticalAlign=middle;whiteSpace=wrap;rounded=0;" parent="1" vertex="1">
          <mxGeometry x="-755" y="180" width="165" height="20" as="geometry" />
        </mxCell>
        <mxCell id="bZb01kiOmycca8Bfqlvu-4" value="&lt;font style=&quot;font-size: 20px&quot;&gt;Samsung Galaxy&lt;/font&gt;" style="text;html=1;strokeColor=none;fillColor=none;align=center;verticalAlign=middle;whiteSpace=wrap;rounded=0;" parent="1" vertex="1">
          <mxGeometry x="-757.5" y="90" width="185" height="20" as="geometry" />
        </mxCell>
        <mxCell id="bZb01kiOmycca8Bfqlvu-6" value="&lt;div style=&quot;font-size: 21px&quot; align=&quot;center&quot;&gt;&lt;font style=&quot;font-size: 21px&quot;&gt;&amp;lt;&amp;lt;device&amp;gt;&amp;gt;&lt;/font&gt;&lt;/div&gt;&lt;div style=&quot;font-size: 21px&quot; align=&quot;center&quot;&gt;&lt;font style=&quot;font-size: 21px&quot;&gt;&lt;br&gt;&lt;/font&gt;&lt;/div&gt;" style="verticalAlign=top;align=center;spacingTop=8;spacingLeft=2;spacingRight=12;shape=cube;size=10;direction=south;fontStyle=4;html=1;rounded=0;shadow=0;comic=0;labelBackgroundColor=none;strokeWidth=1;fontFamily=Verdana;fontSize=12" parent="1" vertex="1">
          <mxGeometry x="-880" y="490" width="440" height="450" as="geometry" />
        </mxCell>
        <mxCell id="bZb01kiOmycca8Bfqlvu-7" value="&lt;div style=&quot;font-size: 21px&quot; align=&quot;center&quot;&gt;&lt;font style=&quot;font-size: 21px&quot;&gt;&amp;lt;&amp;lt;OS&amp;gt;&amp;gt;&lt;/font&gt;&lt;/div&gt;&lt;div style=&quot;font-size: 21px&quot; align=&quot;center&quot;&gt;&lt;font style=&quot;font-size: 21px&quot;&gt;&lt;br&gt;&lt;/font&gt;&lt;/div&gt;" style="verticalAlign=top;align=center;spacingTop=8;spacingLeft=2;spacingRight=12;shape=cube;size=10;direction=south;fontStyle=4;html=1;rounded=0;shadow=0;comic=0;labelBackgroundColor=none;strokeWidth=1;fontFamily=Verdana;fontSize=12" parent="1" vertex="1">
          <mxGeometry x="-850" y="560" width="380" height="340" as="geometry" />
        </mxCell>
        <mxCell id="bZb01kiOmycca8Bfqlvu-8" value="&lt;font style=&quot;font-size: 21px&quot;&gt;Apple iOS&lt;/font&gt;" style="text;html=1;strokeColor=none;fillColor=none;align=center;verticalAlign=middle;whiteSpace=wrap;rounded=0;" parent="1" vertex="1">
          <mxGeometry x="-720" y="610" width="115" height="20" as="geometry" />
        </mxCell>
        <mxCell id="bZb01kiOmycca8Bfqlvu-9" value="&lt;font style=&quot;font-size: 21px&quot;&gt;Apple S5&lt;/font&gt;" style="text;html=1;strokeColor=none;fillColor=none;align=center;verticalAlign=middle;whiteSpace=wrap;rounded=0;" parent="1" vertex="1">
          <mxGeometry x="-720" y="530" width="110" height="20" as="geometry" />
        </mxCell>
        <mxCell id="NkFCByyqnqAlxPoUBvwc-2" value="&lt;div style=&quot;font-size: 22px&quot; align=&quot;center&quot;&gt;&lt;font style=&quot;font-size: 22px&quot;&gt;&amp;lt;&amp;lt;application&amp;gt;&amp;gt;&lt;/font&gt;&lt;/div&gt;&lt;div style=&quot;font-size: 22px&quot; align=&quot;center&quot;&gt;&lt;font style=&quot;font-size: 22px&quot;&gt;Mobile Portal App&lt;/font&gt;&lt;/div&gt;&lt;div style=&quot;font-size: 22px&quot; align=&quot;center&quot;&gt;&lt;font style=&quot;font-size: 22px&quot;&gt;&lt;br&gt;&lt;/font&gt;&lt;/div&gt;" style="verticalAlign=top;align=center;spacingTop=8;spacingLeft=2;spacingRight=12;shape=cube;size=10;direction=south;fontStyle=4;html=1;" parent="1" vertex="1">
          <mxGeometry x="-820" y="210" width="290" height="190" as="geometry" />
        </mxCell>
        <mxCell id="NkFCByyqnqAlxPoUBvwc-4" value="&lt;div style=&quot;font-size: 22px&quot; align=&quot;center&quot;&gt;&lt;font style=&quot;font-size: 22px&quot;&gt;&amp;lt;&amp;lt;application&amp;gt;&amp;gt;&lt;/font&gt;&lt;/div&gt;&lt;div style=&quot;font-size: 22px&quot; align=&quot;center&quot;&gt;&lt;font style=&quot;font-size: 22px&quot;&gt;Mobile Portal App&lt;/font&gt;&lt;/div&gt;&lt;div style=&quot;font-size: 22px&quot; align=&quot;center&quot;&gt;&lt;font style=&quot;font-size: 22px&quot;&gt;&lt;br&gt;&lt;/font&gt;&lt;/div&gt;" style="verticalAlign=top;align=center;spacingTop=8;spacingLeft=2;spacingRight=12;shape=cube;size=10;direction=south;fontStyle=4;html=1;" parent="1" vertex="1">
          <mxGeometry x="-815" y="650" width="285" height="210" as="geometry" />
        </mxCell>
        <mxCell id="D0nsK-4iOJoPO3HQ679--57" style="edgeStyle=orthogonalEdgeStyle;rounded=0;orthogonalLoop=1;jettySize=auto;html=1;entryX=0;entryY=0.5;entryDx=0;entryDy=0;entryPerimeter=0;endArrow=none;endFill=0;strokeWidth=2;" edge="1" parent="1" source="D0nsK-4iOJoPO3HQ679--1" target="D0nsK-4iOJoPO3HQ679--55">
          <mxGeometry relative="1" as="geometry" />
        </mxCell>
        <mxCell id="D0nsK-4iOJoPO3HQ679--1" value="&lt;div style=&quot;font-size: 18px&quot;&gt;&lt;font style=&quot;font-size: 18px&quot;&gt;&amp;lt;&amp;lt;component&amp;gt;&amp;gt;&lt;/font&gt;&lt;/div&gt;&lt;div style=&quot;font-size: 18px&quot;&gt;&lt;font style=&quot;font-size: 18px&quot;&gt;Patient Utilities&lt;br&gt;&lt;/font&gt;&lt;/div&gt;" style="html=1;dropTarget=0;" vertex="1" parent="1">
          <mxGeometry x="20" y="255" width="190" height="90" as="geometry" />
        </mxCell>
        <mxCell id="D0nsK-4iOJoPO3HQ679--2" value="" style="shape=module;jettyWidth=8;jettyHeight=4;" vertex="1" parent="D0nsK-4iOJoPO3HQ679--1">
          <mxGeometry x="1" width="20" height="20" relative="1" as="geometry">
            <mxPoint x="-27" y="7" as="offset" />
          </mxGeometry>
        </mxCell>
        <mxCell id="D0nsK-4iOJoPO3HQ679--67" style="edgeStyle=orthogonalEdgeStyle;rounded=0;orthogonalLoop=1;jettySize=auto;html=1;entryX=0;entryY=0.5;entryDx=0;entryDy=0;entryPerimeter=0;endArrow=none;endFill=0;strokeWidth=2;" edge="1" parent="1" source="D0nsK-4iOJoPO3HQ679--3" target="D0nsK-4iOJoPO3HQ679--66">
          <mxGeometry relative="1" as="geometry" />
        </mxCell>
        <mxCell id="D0nsK-4iOJoPO3HQ679--3" value="&lt;div style=&quot;font-size: 18px&quot;&gt;&lt;font style=&quot;font-size: 18px&quot;&gt;&amp;lt;&amp;lt;component&amp;gt;&amp;gt;&lt;/font&gt;&lt;/div&gt;&lt;div style=&quot;font-size: 18px&quot;&gt;&lt;font style=&quot;font-size: 18px&quot;&gt;Medical Imaging&lt;br&gt;&lt;/font&gt;&lt;/div&gt;" style="html=1;dropTarget=0;" vertex="1" parent="1">
          <mxGeometry x="20" y="375" width="190" height="90" as="geometry" />
        </mxCell>
        <mxCell id="D0nsK-4iOJoPO3HQ679--4" value="" style="shape=module;jettyWidth=8;jettyHeight=4;" vertex="1" parent="D0nsK-4iOJoPO3HQ679--3">
          <mxGeometry x="1" width="20" height="20" relative="1" as="geometry">
            <mxPoint x="-27" y="7" as="offset" />
          </mxGeometry>
        </mxCell>
        <mxCell id="D0nsK-4iOJoPO3HQ679--63" style="edgeStyle=orthogonalEdgeStyle;rounded=0;orthogonalLoop=1;jettySize=auto;html=1;entryX=0;entryY=0.5;entryDx=0;entryDy=0;entryPerimeter=0;endArrow=none;endFill=0;strokeWidth=2;" edge="1" parent="1" source="D0nsK-4iOJoPO3HQ679--5" target="D0nsK-4iOJoPO3HQ679--61">
          <mxGeometry relative="1" as="geometry" />
        </mxCell>
        <mxCell id="D0nsK-4iOJoPO3HQ679--5" value="&lt;div style=&quot;font-size: 18px&quot;&gt;&lt;font style=&quot;font-size: 18px&quot;&gt;&amp;lt;&amp;lt;component&amp;gt;&amp;gt;&lt;/font&gt;&lt;/div&gt;&lt;div style=&quot;font-size: 18px&quot;&gt;&lt;font style=&quot;font-size: 18px&quot;&gt;Hospital Billing&lt;br&gt;&lt;/font&gt;&lt;/div&gt;" style="html=1;dropTarget=0;" vertex="1" parent="1">
          <mxGeometry x="20" y="485" width="190" height="90" as="geometry" />
        </mxCell>
        <mxCell id="D0nsK-4iOJoPO3HQ679--6" value="" style="shape=module;jettyWidth=8;jettyHeight=4;" vertex="1" parent="D0nsK-4iOJoPO3HQ679--5">
          <mxGeometry x="1" width="20" height="20" relative="1" as="geometry">
            <mxPoint x="-27" y="7" as="offset" />
          </mxGeometry>
        </mxCell>
        <mxCell id="D0nsK-4iOJoPO3HQ679--65" style="edgeStyle=orthogonalEdgeStyle;rounded=0;orthogonalLoop=1;jettySize=auto;html=1;entryX=0;entryY=0.5;entryDx=0;entryDy=0;entryPerimeter=0;endArrow=none;endFill=0;strokeWidth=2;" edge="1" parent="1" source="D0nsK-4iOJoPO3HQ679--7" target="D0nsK-4iOJoPO3HQ679--60">
          <mxGeometry relative="1" as="geometry" />
        </mxCell>
        <mxCell id="D0nsK-4iOJoPO3HQ679--7" value="&lt;div style=&quot;font-size: 18px&quot;&gt;&lt;font style=&quot;font-size: 18px&quot;&gt;&amp;lt;&amp;lt;component&amp;gt;&amp;gt;&lt;/font&gt;&lt;/div&gt;&lt;div style=&quot;font-size: 18px&quot;&gt;&lt;font style=&quot;font-size: 18px&quot;&gt;Digital Medical&lt;/font&gt;&lt;/div&gt;&lt;div style=&quot;font-size: 18px&quot;&gt;&lt;font style=&quot;font-size: 18px&quot;&gt;Reporting&lt;br&gt;&lt;/font&gt;&lt;/div&gt;" style="html=1;dropTarget=0;" vertex="1" parent="1">
          <mxGeometry x="20" y="595" width="190" height="90" as="geometry" />
        </mxCell>
        <mxCell id="D0nsK-4iOJoPO3HQ679--8" value="" style="shape=module;jettyWidth=8;jettyHeight=4;" vertex="1" parent="D0nsK-4iOJoPO3HQ679--7">
          <mxGeometry x="1" width="20" height="20" relative="1" as="geometry">
            <mxPoint x="-27" y="7" as="offset" />
          </mxGeometry>
        </mxCell>
        <mxCell id="D0nsK-4iOJoPO3HQ679--64" style="edgeStyle=orthogonalEdgeStyle;rounded=0;orthogonalLoop=1;jettySize=auto;html=1;entryX=0;entryY=0.5;entryDx=0;entryDy=0;entryPerimeter=0;endArrow=none;endFill=0;strokeWidth=2;" edge="1" parent="1" source="D0nsK-4iOJoPO3HQ679--9" target="D0nsK-4iOJoPO3HQ679--62">
          <mxGeometry relative="1" as="geometry" />
        </mxCell>
        <mxCell id="D0nsK-4iOJoPO3HQ679--9" value="&lt;div style=&quot;font-size: 18px&quot;&gt;&lt;font style=&quot;font-size: 18px&quot;&gt;&amp;lt;&amp;lt;component&amp;gt;&amp;gt;&lt;/font&gt;&lt;/div&gt;&lt;div style=&quot;font-size: 18px&quot;&gt;&lt;font style=&quot;font-size: 18px&quot;&gt;Pharmacy Utilities&lt;br&gt;&lt;/font&gt;&lt;/div&gt;" style="html=1;dropTarget=0;" vertex="1" parent="1">
          <mxGeometry x="20" y="705" width="190" height="90" as="geometry" />
        </mxCell>
        <mxCell id="D0nsK-4iOJoPO3HQ679--10" value="" style="shape=module;jettyWidth=8;jettyHeight=4;" vertex="1" parent="D0nsK-4iOJoPO3HQ679--9">
          <mxGeometry x="1" width="20" height="20" relative="1" as="geometry">
            <mxPoint x="-27" y="7" as="offset" />
          </mxGeometry>
        </mxCell>
        <mxCell id="D0nsK-4iOJoPO3HQ679--31" style="edgeStyle=orthogonalEdgeStyle;rounded=0;orthogonalLoop=1;jettySize=auto;html=1;exitX=1;exitY=0.5;exitDx=0;exitDy=0;entryX=1;entryY=0.5;entryDx=0;entryDy=0;entryPerimeter=0;endArrow=none;endFill=0;" edge="1" parent="1" source="D0nsK-4iOJoPO3HQ679--11" target="D0nsK-4iOJoPO3HQ679--29">
          <mxGeometry relative="1" as="geometry" />
        </mxCell>
        <mxCell id="D0nsK-4iOJoPO3HQ679--11" value="&lt;div style=&quot;font-size: 17px&quot;&gt;&lt;font style=&quot;font-size: 17px&quot;&gt;«interface»&lt;/font&gt;&lt;/div&gt;&lt;div style=&quot;font-size: 17px&quot;&gt;&lt;font style=&quot;font-size: 17px&quot;&gt;&lt;b&gt;React Native &lt;br&gt;&lt;/b&gt;&lt;/font&gt;&lt;/div&gt;&lt;div style=&quot;font-size: 17px&quot;&gt;&lt;font style=&quot;font-size: 17px&quot;&gt;&lt;b&gt;User Interface&lt;/b&gt;&lt;br&gt;&lt;/font&gt;&lt;/div&gt;" style="html=1;dropTarget=0;" vertex="1" parent="1">
          <mxGeometry x="-780" y="290" width="200" height="100" as="geometry" />
        </mxCell>
        <mxCell id="D0nsK-4iOJoPO3HQ679--12" value="" style="shape=module;jettyWidth=8;jettyHeight=4;" vertex="1" parent="D0nsK-4iOJoPO3HQ679--11">
          <mxGeometry x="1" width="20" height="20" relative="1" as="geometry">
            <mxPoint x="-27" y="7" as="offset" />
          </mxGeometry>
        </mxCell>
        <mxCell id="D0nsK-4iOJoPO3HQ679--33" style="edgeStyle=orthogonalEdgeStyle;rounded=0;orthogonalLoop=1;jettySize=auto;html=1;entryX=1;entryY=0.5;entryDx=0;entryDy=0;entryPerimeter=0;endArrow=none;endFill=0;" edge="1" parent="1" source="D0nsK-4iOJoPO3HQ679--13" target="D0nsK-4iOJoPO3HQ679--32">
          <mxGeometry relative="1" as="geometry">
            <Array as="points">
              <mxPoint x="-350" y="785" />
            </Array>
          </mxGeometry>
        </mxCell>
        <mxCell id="D0nsK-4iOJoPO3HQ679--13" value="&lt;div style=&quot;font-size: 17px&quot;&gt;&lt;font style=&quot;font-size: 17px&quot;&gt;«interface»&lt;/font&gt;&lt;/div&gt;&lt;div style=&quot;font-size: 17px&quot;&gt;&lt;font style=&quot;font-size: 17px&quot;&gt;&lt;b&gt;React Native &lt;br&gt;&lt;/b&gt;&lt;/font&gt;&lt;/div&gt;&lt;div style=&quot;font-size: 17px&quot;&gt;&lt;font style=&quot;font-size: 17px&quot;&gt;&lt;b&gt;User Interface&lt;/b&gt;&lt;br&gt;&lt;/font&gt;&lt;/div&gt;" style="html=1;dropTarget=0;" vertex="1" parent="1">
          <mxGeometry x="-768.75" y="740" width="177.5" height="90" as="geometry" />
        </mxCell>
        <mxCell id="D0nsK-4iOJoPO3HQ679--14" value="" style="shape=module;jettyWidth=8;jettyHeight=4;" vertex="1" parent="D0nsK-4iOJoPO3HQ679--13">
          <mxGeometry x="1" width="20" height="20" relative="1" as="geometry">
            <mxPoint x="-27" y="7" as="offset" />
          </mxGeometry>
        </mxCell>
        <mxCell id="D0nsK-4iOJoPO3HQ679--27" value="" style="rounded=0;whiteSpace=wrap;html=1;" vertex="1" parent="1">
          <mxGeometry x="-216" y="440" width="30" height="30" as="geometry" />
        </mxCell>
        <mxCell id="D0nsK-4iOJoPO3HQ679--28" value="" style="rounded=0;whiteSpace=wrap;html=1;" vertex="1" parent="1">
          <mxGeometry x="585" y="430" width="30" height="30" as="geometry" />
        </mxCell>
        <mxCell id="D0nsK-4iOJoPO3HQ679--34" style="edgeStyle=orthogonalEdgeStyle;rounded=0;orthogonalLoop=1;jettySize=auto;html=1;entryX=0;entryY=0.25;entryDx=0;entryDy=0;endArrow=classicThin;endFill=1;dashed=1;strokeWidth=2;" edge="1" parent="1" source="D0nsK-4iOJoPO3HQ679--29" target="D0nsK-4iOJoPO3HQ679--27">
          <mxGeometry relative="1" as="geometry" />
        </mxCell>
        <mxCell id="D0nsK-4iOJoPO3HQ679--29" value="" style="shape=requiredInterface;html=1;verticalLabelPosition=bottom;rotation=-180;" vertex="1" parent="1">
          <mxGeometry x="-340" y="330" width="10" height="20" as="geometry" />
        </mxCell>
        <mxCell id="D0nsK-4iOJoPO3HQ679--36" style="edgeStyle=orthogonalEdgeStyle;rounded=0;orthogonalLoop=1;jettySize=auto;html=1;entryX=0;entryY=0.75;entryDx=0;entryDy=0;dashed=1;endArrow=classicThin;endFill=1;strokeWidth=2;" edge="1" parent="1" source="D0nsK-4iOJoPO3HQ679--32" target="D0nsK-4iOJoPO3HQ679--27">
          <mxGeometry relative="1" as="geometry" />
        </mxCell>
        <mxCell id="D0nsK-4iOJoPO3HQ679--32" value="" style="shape=requiredInterface;html=1;verticalLabelPosition=bottom;rotation=-180;" vertex="1" parent="1">
          <mxGeometry x="-340" y="775" width="10" height="20" as="geometry" />
        </mxCell>
        <mxCell id="D0nsK-4iOJoPO3HQ679--35" value="REST API" style="text;html=1;align=center;verticalAlign=middle;resizable=0;points=[];autosize=1;strokeColor=none;" vertex="1" parent="1">
          <mxGeometry x="-370" y="295" width="70" height="20" as="geometry" />
        </mxCell>
        <mxCell id="D0nsK-4iOJoPO3HQ679--37" value="REST API" style="text;html=1;align=center;verticalAlign=middle;resizable=0;points=[];autosize=1;strokeColor=none;" vertex="1" parent="1">
          <mxGeometry x="-370" y="745" width="70" height="20" as="geometry" />
        </mxCell>
        <mxCell id="D0nsK-4iOJoPO3HQ679--55" value="" style="shape=providedRequiredInterface;html=1;verticalLabelPosition=bottom;rotation=-180;" vertex="1" parent="1">
          <mxGeometry x="-90" y="285" width="30" height="30" as="geometry" />
        </mxCell>
        <mxCell id="D0nsK-4iOJoPO3HQ679--60" value="" style="shape=providedRequiredInterface;html=1;verticalLabelPosition=bottom;rotation=-180;" vertex="1" parent="1">
          <mxGeometry x="-90" y="625" width="30" height="30" as="geometry" />
        </mxCell>
        <mxCell id="D0nsK-4iOJoPO3HQ679--61" value="" style="shape=providedRequiredInterface;html=1;verticalLabelPosition=bottom;rotation=-180;" vertex="1" parent="1">
          <mxGeometry x="-90" y="515" width="30" height="30" as="geometry" />
        </mxCell>
        <mxCell id="D0nsK-4iOJoPO3HQ679--62" value="" style="shape=providedRequiredInterface;html=1;verticalLabelPosition=bottom;rotation=-180;" vertex="1" parent="1">
          <mxGeometry x="-90" y="735" width="30" height="30" as="geometry" />
        </mxCell>
        <mxCell id="D0nsK-4iOJoPO3HQ679--66" value="" style="shape=providedRequiredInterface;html=1;verticalLabelPosition=bottom;rotation=-180;" vertex="1" parent="1">
          <mxGeometry x="-90" y="405" width="30" height="30" as="geometry" />
        </mxCell>
      </root>
    </mxGraphModel>
  </diagram>
</mxfile>
